<svg width="156" height="123" viewBox="0 0 156 123" fill="none" xmlns="http://www.w3.org/2000/svg">
<mask id="mask0_4_1270" style="mask-type:alpha" maskUnits="userSpaceOnUse" x="3" y="29" width="146" height="69">
<path d="M29.295 97.35C24.705 97.35 20.565 96.57 16.875 95.01C13.215 93.45 10.185 91.23 7.785 88.35C5.415 85.44 3.87 82.005 3.15 78.045L11.43 76.74C12.48 80.82 14.655 84.015 17.955 86.325C21.285 88.605 25.2 89.745 29.7 89.745C32.61 89.745 35.235 89.295 37.575 88.395C39.945 87.465 41.82 86.145 43.2 84.435C44.58 82.725 45.27 80.7 45.27 78.36C45.27 76.92 45.015 75.69 44.505 74.67C44.025 73.62 43.35 72.735 42.48 72.015C41.64 71.265 40.68 70.635 39.6 70.125C38.52 69.615 37.395 69.195 36.225 68.865L19.71 63.96C17.91 63.42 16.17 62.745 14.49 61.935C12.81 61.095 11.31 60.06 9.99 58.83C8.67 57.57 7.62 56.07 6.84 54.33C6.06 52.56 5.67 50.475 5.67 48.075C5.67 44.235 6.66 40.965 8.64 38.265C10.65 35.535 13.365 33.45 16.785 32.01C20.205 30.57 24.06 29.865 28.35 29.895C32.7 29.925 36.585 30.705 40.005 32.235C43.455 33.735 46.305 35.895 48.555 38.715C50.835 41.535 52.365 44.91 53.145 48.84L44.64 50.325C44.19 47.685 43.185 45.42 41.625 43.53C40.095 41.61 38.175 40.14 35.865 39.12C33.555 38.07 31.02 37.53 28.26 37.5C25.62 37.47 23.235 37.89 21.105 38.76C18.975 39.63 17.28 40.845 16.02 42.405C14.76 43.935 14.13 45.705 14.13 47.715C14.13 49.695 14.7 51.3 15.84 52.53C16.98 53.73 18.375 54.69 20.025 55.41C21.705 56.1 23.34 56.67 24.93 57.12L37.26 60.675C38.67 61.065 40.29 61.605 42.12 62.295C43.98 62.985 45.78 63.96 47.52 65.22C49.26 66.45 50.7 68.1 51.84 70.17C52.98 72.21 53.55 74.79 53.55 77.91C53.55 81.03 52.92 83.805 51.66 86.235C50.43 88.665 48.705 90.705 46.485 92.355C44.265 93.975 41.685 95.205 38.745 96.045C35.805 96.915 32.655 97.35 29.295 97.35ZM62.9895 96V31.2H70.2795L94.7595 82.815L119.104 31.2H126.484V95.955H118.879V48.795L96.8745 96H92.5995L70.5945 48.795V96H62.9895ZM140.003 96V31.2H148.013V96H140.003Z" fill="white"/>
</mask>
<g mask="url(#mask0_4_1270)">
<rect y="21" width="156" height="41" fill="#D9D9D9"/>
<rect y="74" width="156" height="29" fill="#D9D9D9"/>
</g>
</svg>
